PathFileType	4	(X/Y/Z)	E:\3-PhD\Data\MocapData\ElaboratedData\012\pre\dynamicElaborations\Run_baselineA1\Run_baselineA1.trc
DataRate	CameraRate	NumFrames	NumMarkers	Units	OrigDataRate	OrigDataStartFrame	OrigNumFrames
200	200	5	56	mm	200	8.290000e+02	106
Frame#	Time	FHD			LBHD			RBHD			C7			T10			CLAV			LSHO			LUUPA			LMUPA			LDUPA			LLEP			LMEP			LRAD			LUL			LRFIN			RSHO			RUPA1			RMUPA			RDUPA			RLEP			RMEP			RRAD			RUL			RUFIN			LASI			RASI			USACR			LSACR			RSACR			LTHI1			LTHI2			LTHI3			LTHI4			LLFC			LTIB1			LTIB2			LTIB3			LTIB4			LHEE			LMT1			LMT5			LMT2			RTHI			RTHI2			RTHI3			RTHI4			RLFC			RTIB1			RTIB2			RTIB3			RTIB4			RLMAL			RHEE			RMT1			RMT2			RMT5		
		X1	Y1	Z1	X2	Y2	Z2	X3	Y3	Z3	X4	Y4	Z4	X5	Y5	Z5	X6	Y6	Z6	X7	Y7	Z7	X8	Y8	Z8	X9	Y9	Z9	X10	Y10	Z10	X11	Y11	Z11	X12	Y12	Z12	X13	Y13	Z13	X14	Y14	Z14	X15	Y15	Z15	X16	Y16	Z16	X17	Y17	Z17	X18	Y18	Z18	X19	Y19	Z19	X20	Y20	Z20	X21	Y21	Z21	X22	Y22	Z22	X23	Y23	Z23	X24	Y24	Z24	X25	Y25	Z25	X26	Y26	Z26	X27	Y27	Z27	X28	Y28	Z28	X29	Y29	Z29	X30	Y30	Z30	X31	Y31	Z31	X32	Y32	Z32	X33	Y33	Z33	X34	Y34	Z34	X35	Y35	Z35	X36	Y36	Z36	X37	Y37	Z37	X38	Y38	Z38	X39	Y39	Z39	X40	Y40	Z40	X41	Y41	Z41	X42	Y42	Z42	X43	Y43	Z43	X44	Y44	Z44	X45	Y45	Z45	X46	Y46	Z46	X47	Y47	Z47	X48	Y48	Z48	X49	Y49	Z49	X50	Y50	Z50	X51	Y51	Z51	X52	Y52	Z52	X53	Y53	Z53	X54	Y54	Z54	X55	Y55	Z55	X56	Y56	Z56	
829	4.140000	-3190.284509	1693.776452	425.535851	-3346.515357	1705.985496	323.307202	-3339.935895	1688.659530	465.684887	-3428.936007	1544.939957	385.578185	-3614.695081	1240.652281	354.101325	-3319.824627	1419.998493	400.664866	-3305.792011	1545.331880	278.389880	-3271.749518	1352.328803	158.238017	-3245.954642	1325.755567	190.813668	-3265.970189	1283.145459	151.275133	-3242.894109	1197.477354	160.326513	-3325.127332	1173.338602	192.662522	-3163.484431	1185.579757	426.313254	-3120.445712	1130.737494	392.571522	-3100.703517	1191.187554	486.094986	-3362.687946	1488.320961	562.949790	-3590.506283	1475.901755	628.397715	-3597.743102	1429.174405	642.547954	-3651.338547	1445.168480	640.408802	-3718.220484	1414.704029	649.718626	-3728.983198	1374.120468	583.073185	-3707.503288	1153.469454	762.924880	-3774.569603	1172.812080	797.397099	-3719.342923	1082.795032	818.586297	-3572.385524	970.278238	237.238337	-3536.751450	998.849132	464.908933	-3687.653991	1122.430327	367.250530	-3715.574043	1095.595077	337.118213	-3711.488155	1098.245752	392.759435	-3790.843335	782.523823	184.299753	-3797.874920	696.842706	188.005423	-3756.125173	675.312884	199.662669	-3848.864935	666.407099	196.476415	-3942.837948	537.638189	211.768241	-4065.226668	383.207666	280.623332	-4110.417414	382.495345	212.518597	-4092.497539	355.349671	240.446537	-4151.332429	306.269843	272.055845	-4346.951179	283.951374	302.389716	-4256.501267	120.237164	345.840726	-4294.329022	105.429409	238.479553	-4257.742051	89.402698	279.128780	-3478.780684	783.093036	520.752487	-3412.560264	778.177469	513.126600	-3386.839444	806.647513	509.633048	-3374.978748	703.830647	494.144050	-3312.479810	615.746856	474.259492	-3302.499919	488.636500	422.464046	-3384.176650	436.917025	469.653324	-3349.971475	419.342447	444.843517	-3363.509516	375.611150	410.136248	-3483.113908	231.321527	406.117465	-3542.358265	199.126230	369.199250	-3325.450123	178.729425	323.883262	-3320.452395	177.732569	366.478206	-3360.359231	150.571066	417.339675	
830	4.145000	-3163.274861	1695.718486	426.466665	-3319.596063	1707.779907	324.572273	-3312.708119	1690.387250	466.828245	-3401.721009	1547.003747	385.779904	-3586.614868	1242.474303	350.471483	-3292.875266	1422.175320	401.685281	-3277.613702	1547.354164	279.979066	-3243.322511	1354.673910	159.031872	-3218.067522	1327.728793	191.607849	-3238.020856	1285.570589	151.453265	-3215.583180	1199.431711	160.192427	-3298.502006	1175.853584	191.043851	-3140.524546	1179.217289	427.434681	-3097.472733	1124.970777	392.449459	-3078.909507	1181.342325	489.086413	-3336.811199	1489.638212	563.412446	-3564.910712	1476.995681	628.081788	-3572.367727	1429.787828	641.378135	-3625.818934	1445.841746	638.997328	-3691.957780	1414.839417	648.150828	-3702.715530	1374.512447	580.429542	-3677.993420	1152.986381	759.904000	-3745.033667	1171.177288	794.724050	-3686.773992	1082.164314	815.109605	-3542.270196	971.740778	235.875008	-3508.651271	1001.496859	463.459500	-3658.557311	1124.567836	363.667654	-3686.184737	1097.590389	333.485593	-3683.078795	1100.329678	388.654441	-3761.497199	784.481143	181.752961	-3769.437976	698.984361	187.127493	-3728.161307	677.083830	199.667394	-3821.058092	669.238973	195.048135	-3917.746913	542.619159	211.460388	-4044.259756	389.387534	280.398090	-4088.378633	390.479400	211.729738	-4070.769551	362.537946	239.611419	-4130.150398	314.140171	271.176157	-4323.387743	299.498620	301.281769	-4246.282875	128.956997	347.490283	-4283.723962	115.614777	239.394321	-4247.917158	97.004514	279.627193	-3452.468582	782.669836	519.482615	-3386.165776	777.023530	512.542925	-3360.304474	805.091135	509.388021	-3350.095565	702.063193	492.635327	-3285.723769	614.174215	475.407750	-3268.632173	487.086351	422.686760	-3347.288048	429.422711	468.391148	-3311.681788	414.464251	444.139854	-3322.146321	370.444027	409.019288	-3431.785777	218.597248	403.412054	-3488.762745	182.350145	366.296477	-3270.805855	178.824373	319.940960	-3265.549447	176.691184	362.626858	-3304.737277	145.202340	412.761682	
831	4.150000	-3136.192211	1697.603630	427.408568	-3292.601958	1709.499634	325.806341	-3285.380030	1692.002200	467.996599	-3374.372664	1548.953564	385.955141	-3558.563280	1244.473508	347.168282	-3265.851030	1424.133865	402.565938	-3249.380023	1549.126853	281.270487	-3215.248317	1356.671456	159.681188	-3190.560127	1329.358430	192.193047	-3210.517947	1287.631159	151.513646	-3188.883160	1200.946674	159.827173	-3272.476027	1178.166924	189.349611	-3117.699011	1171.937378	427.812663	-3074.876935	1118.268371	391.512258	-3057.126621	1170.386507	490.918128	-3310.845426	1490.673063	563.870700	-3539.326738	1477.168292	627.637465	-3546.900249	1429.531027	640.159178	-3600.250988	1445.528627	637.521808	-3665.540892	1413.802890	646.640803	-3676.224796	1373.845786	577.829142	-3647.848814	1151.286556	756.480163	-3714.906146	1168.168256	791.659114	-3653.966118	1080.198293	811.292804	-3512.391019	973.374265	234.554577	-3480.899718	1003.829798	462.115181	-3629.571113	1126.873559	360.509358	-3656.869712	1099.741304	330.332192	-3654.616919	1102.564094	385.157230	-3731.741795	786.024668	179.224884	-3740.228218	700.744057	185.980479	-3699.305741	678.611947	199.191501	-3792.260100	671.376150	193.408048	-3891.054315	546.440778	210.781327	-4021.515205	395.100592	280.088530	-4065.037587	397.949374	211.071140	-4047.759973	369.109160	239.083377	-4107.869888	321.973600	270.791745	-4298.762772	315.095108	300.770654	-4234.464582	138.451270	349.237125	-4271.395400	127.012200	240.873256	-4236.434777	106.061913	280.680189	-3426.681043	781.575845	518.550936	-3360.330995	774.974059	512.084756	-3334.299331	802.514447	509.072426	-3325.900757	699.390756	491.571719	-3260.001336	611.403780	476.378964	-3236.236942	484.787497	422.999719	-3312.003603	421.620632	466.981676	-3274.991279	409.256788	443.468113	-3282.433292	365.128454	407.994323	-3382.324328	206.794300	400.817612	-3436.769825	166.871499	363.376829	-3218.739536	179.276685	316.589140	-3213.229992	176.073852	359.311261	-3251.485161	140.778887	408.895625	
832	4.155000	-3109.034644	1699.447263	428.339968	-3265.539928	1711.163951	326.998356	-3257.942111	1693.519901	469.199527	-3346.879551	1550.783252	386.088904	-3530.543662	1246.650014	344.232805	-3238.741364	1425.885288	403.301641	-3221.085037	1550.629600	282.232820	-3187.534756	1358.310129	160.156858	-3163.433661	1330.634674	192.545539	-3183.470503	1289.314946	151.438776	-3162.807923	1202.022028	159.215352	-3247.060224	1180.270837	187.583330	-3095.021617	1163.842610	427.401888	-3052.652979	1110.738823	389.723239	-3035.366416	1158.459100	491.556079	-3284.795097	1491.466158	564.331920	-3513.759768	1476.396165	627.060769	-3521.308219	1428.383965	638.882450	-3574.620010	1444.171144	635.982062	-3638.981912	1411.563968	645.126051	-3649.472222	1372.092628	575.266775	-3617.064947	1148.387178	752.686806	-3684.186646	1163.824264	788.198712	-3620.892038	1076.925206	807.087042	-3482.721237	975.158878	233.304538	-3453.490980	1005.857222	460.864779	-3600.747163	1129.296090	357.746014	-3627.674583	1101.992770	327.623870	-3626.115540	1104.899691	382.271208	-3701.630591	787.158589	176.731602	-3710.316298	702.096192	184.577214	-3669.628052	679.873480	198.226989	-3762.551679	672.810754	191.562603	-3862.822417	549.050729	209.733802	-3997.051052	400.309041	279.716295	-4040.412840	404.827304	210.564232	-4023.509063	375.037812	238.858194	-4084.526749	329.746657	270.892002	-4273.192627	330.655078	300.811573	-4220.943217	148.647062	351.046773	-4257.254431	139.439872	242.931659	-4223.191126	116.461386	282.359351	-3401.398970	779.918029	518.001437	-3335.045315	772.170504	511.800947	-3308.822043	799.087204	508.712436	-3302.350553	695.970382	490.957404	-3235.276155	607.584512	477.146781	-3205.298783	481.814822	423.390375	-3278.415700	413.648251	465.415993	-3239.982732	403.808782	442.829346	-3244.497880	359.711462	407.050528	-3335.097924	195.928139	398.311750	-3386.821416	152.758300	360.393914	-3169.460502	179.854776	313.933286	-3163.766310	175.685359	356.634333	-3200.777955	137.115948	405.794310	
833	4.160000	-3081.802341	1701.256222	429.235661	-3238.415557	1712.777439	328.139146	-3230.388149	1694.953401	470.448092	-3319.232722	1552.483842	386.177252	-3502.558015	1248.985438	341.688758	-3211.537998	1427.437702	403.901141	-3192.726481	1551.839967	282.852116	-3160.199402	1359.585645	160.419197	-3136.690623	1331.548837	192.632726	-3156.896305	1290.619243	151.196668	-3137.371491	1202.666233	158.336659	-3222.256912	1182.161962	185.750583	-3072.500998	1155.047701	426.165254	-3030.791649	1102.494939	387.048486	-3013.647094	1145.697053	490.982220	-3258.663886	1492.048190	564.807904	-3488.210133	1474.668726	626.352343	-3495.559306	1426.341177	637.549602	-3548.909339	1441.723364	634.369830	-3612.280391	1408.111944	643.550854	-3622.412662	1369.237054	572.732282	-3585.631618	1144.318986	748.544956	-3652.862968	1158.191248	784.338792	-3587.475412	1072.393119	802.453964	-3453.220353	977.074014	232.142712	-3426.400532	1007.604137	459.695622	-3572.123038	1131.769684	355.335730	-3598.669169	1104.276991	325.273487	-3597.594378	1107.274720	379.965804	-3671.202439	787.890801	174.276608	-3679.757959	703.024333	182.938204	-3639.189711	680.853900	196.797965	-3732.003444	673.556359	189.525870	-3833.118140	550.446874	208.345310	-3970.906103	404.989433	279.290161	-4014.509625	411.079784	210.229235	-3998.037439	380.342654	238.903048	-4060.130651	337.429765	271.432067	-4246.731433	346.110164	301.330077	-4205.627105	159.457810	352.879289	-4241.241558	152.693230	245.546405	-4208.104765	128.023547	284.705909	-3376.599488	777.789844	517.842394	-3310.292926	768.747843	511.737124	-3283.865050	794.976403	508.357615	-3279.390767	691.946585	490.735550	-3211.500569	602.896687	477.702643	-3175.785998	478.256220	423.830575	-3246.586399	405.646390	463.692364	-3206.722520	398.202842	442.214062	-3208.451445	354.238778	406.173710	-3290.445333	185.981060	395.867796	-3339.340969	140.038011	357.301084	-3123.135735	180.319437	312.052090	-3117.387672	175.306049	354.679159	-3152.776961	133.966400	403.446365	
